<svg xmlns="http://www.w3.org/2000/svg" xmlns:xlink="http://www.w3.org/1999/xlink" version="1.1" id="Layer_1" x="0px" y="0px" style="enable-background:new 0 0 512 512;" xml:space="preserve" viewBox="0 161.9 512 187.98">
<style type="text/css">
	.st0{fill:url(#XMLID_00000150800735064943608880000006300994933068448670_);}
	.st1{fill:#0071B9;}
	.st2{fill:url(#XMLID_00000137094619132886212700000006714358253246898086_);}
	.st3{fill:#1D2C5E;}
	.st4{fill:url(#XMLID_00000043420768946144453480000002952147010715848119_);}
	.st5{fill:url(#XMLID_00000106130238949924941660000001469023944032295352_);}
	.st6{fill:#312370;}
	.st7{fill:#21386E;}
	.st8{fill:url(#XMLID_00000129164388798980635250000000659764716434557625_);}
	.st9{fill:url(#XMLID_00000097501777079612908040000002363689126518172289_);}
	.st10{fill:url(#XMLID_00000128475073215423755470000004056195286220395454_);}
	.st11{fill:#FFCB05;}
	.st12{fill:#7D7F68;}
	.st13{fill:#C7A008;}
	.st14{fill:#3C5AA6;}
	.st15{fill:#3567B0;}
	.st16{fill:#1E2D5F;}
	.st17{fill:#3466AF;}
	.st18{fill:url(#XMLID_00000157291849595897543350000003740543302262487737_);}
	.st19{fill:url(#XMLID_00000062887629138181799270000004299372548968619913_);}
</style>
<g id="XMLID_1_">
	
		<linearGradient id="XMLID_00000046324207506158746750000006222875436141404577_" gradientUnits="userSpaceOnUse" x1="8.2958" y1="510.6089" x2="10.1958" y2="510.6089" gradientTransform="matrix(-10.0173 -18.6687 -18.6687 10.0173 9640.7764 -4696.188)">
		<stop offset="0" style="stop-color:#0070B6"/>
		<stop offset="1" style="stop-color:#1D2C5E"/>
	</linearGradient>
	<polygon id="XMLID_3_" style="fill:url(#XMLID_00000046324207506158746750000006222875436141404577_);" points="0,231.63    22.86,270.21 31.98,261.51 7.15,224.48  "/>
	<polygon id="XMLID_4_" class="st1" points="339.32,201.33 338.34,206.38 349.28,202.88 347.88,196.7  "/>
	
		<linearGradient id="XMLID_00000094576799118750205880000009559612326883825330_" gradientUnits="userSpaceOnUse" x1="7.2269" y1="507.0916" x2="9.1269" y2="507.0916" gradientTransform="matrix(12.7152 -13.624 -13.624 -12.7152 7074.147 6737.644)">
		<stop offset="0" style="stop-color:#0070B6"/>
		<stop offset="1" style="stop-color:#1D2C5E"/>
	</linearGradient>
	<polygon id="XMLID_5_" style="fill:url(#XMLID_00000094576799118750205880000009559612326883825330_);" points="275.64,166.55    240.43,206.94 250.67,204 284.2,162.2  "/>
	<polygon id="XMLID_6_" class="st3" points="463.75,221.67 472.3,217.18 469.92,238.79  "/>
	<polygon id="XMLID_7_" class="st3" points="410.02,235.56 417.74,237.1 427.56,232.33 419,229.25  "/>
	
		<linearGradient id="XMLID_00000088820748889214231270000010268006078060701347_" gradientUnits="userSpaceOnUse" x1="7.2874" y1="509.6643" x2="9.1874" y2="509.6643" gradientTransform="matrix(-1.5163 -12.7383 -12.7383 1.5163 6655.3228 -445.4184)">
		<stop offset="0" style="stop-color:#0070B6"/>
		<stop offset="1" style="stop-color:#1D2C5E"/>
	</linearGradient>
	<polygon id="XMLID_8_" style="fill:url(#XMLID_00000088820748889214231270000010268006078060701347_);" points="145.6,212.7    146.73,237.66 157.53,233.32 154.3,207.93  "/>
	
		<linearGradient id="XMLID_00000023993807569463799360000017156220138394606267_" gradientUnits="userSpaceOnUse" x1="6.7712" y1="499.3783" x2="8.6712" y2="499.3783" gradientTransform="matrix(-0.6055 -11.498 -11.498 0.6055 6161.8687 5.3794)">
		<stop offset="0" style="stop-color:#125D9E"/>
		<stop offset="1" style="stop-color:#1D2C5E"/>
	</linearGradient>
	<polygon id="XMLID_9_" style="fill:url(#XMLID_00000023993807569463799360000017156220138394606267_);" points="418.44,205.12    409.74,209.75 410.02,235.56 418.72,231.07 421.52,218.73  "/>
	<polygon id="XMLID_10_" class="st6" points="417.17,237.24 407.64,321.55 422.93,318.6 425.87,232.61  "/>
	<polygon id="XMLID_11_" class="st7" points="435.83,325.62 435.97,336.98 465.15,346.24 473.85,341.75 445.23,319.58    416.33,317.06 407.64,321.55  "/>
	<polygon id="XMLID_12_" class="st7" points="327.68,305.42 334.83,301.63 339.46,310.05 346.2,306.4 347.6,317.48 389.82,324.91    398.38,320.29 339.88,284.66 298.5,291.81 290.51,299.53  "/>
	
		<linearGradient id="XMLID_00000101805077760890331700000005877220173831736222_" gradientUnits="userSpaceOnUse" x1="4.2715" y1="506.6686" x2="6.1715" y2="506.6686" gradientTransform="matrix(-13.3434 21.228 21.228 13.3434 -10363.2666 -6652.937)">
		<stop offset="0" style="stop-color:#125D9E"/>
		<stop offset="1" style="stop-color:#1D2C5E"/>
	</linearGradient>
	<polygon id="XMLID_13_" style="fill:url(#XMLID_00000101805077760890331700000005877220173831736222_);" points="314.21,201.75    305.8,206.38 290.51,299.53 299.06,295.04 313.79,242.71  "/>
	<polygon id="XMLID_14_" class="st3" points="246.6,214.24 239.87,217.75 240.43,220.13 256.42,209.89 249.41,202.32 240.43,206.94     "/>
	<polygon id="XMLID_15_" class="st7" points="265.12,324.21 195.96,289.99 204.66,283.39 273.67,319.58  "/>
	<polygon id="XMLID_16_" class="st3" points="202.56,196.84 192.04,216.76 203.12,213.4 211.11,192.22  "/>
	
		<linearGradient id="XMLID_00000142861831013216108930000004954861892782262974_" gradientUnits="userSpaceOnUse" x1="4.6055" y1="502.8762" x2="6.5055" y2="502.8762" gradientTransform="matrix(9.098 17.8929 17.8929 -9.098 -8928.8438 4755.8311)">
		<stop offset="0" style="stop-color:#105FA1"/>
		<stop offset="1" style="stop-color:#1D2C5E"/>
	</linearGradient>
	<path id="XMLID_17_" style="fill:url(#XMLID_00000142861831013216108930000004954861892782262974_);" d="M107.59,278.9l-8.84,6.03   c0,0,1.82,9.82,4.35,16.69c2.38,6.87,8.28,12.34,8.28,12.34c3.65,3.65,8.28,6.31,13.33,7.72c9.82,2.81,20.76,0.98,30.3-5.05   c2.52-1.54,5.89-4.07,7.86-6.03C153.46,316.36,107.59,278.9,107.59,278.9z"/>
	<polygon id="XMLID_18_" class="st3" points="154.86,235.7 162.86,324.49 195.82,319.58 204.66,315.1 163.84,230.37 155.42,233.18    146.73,237.66  "/>
	
		<linearGradient id="XMLID_00000035501361157518161670000011034252030274954405_" gradientUnits="userSpaceOnUse" x1="4.4407" y1="502.5975" x2="6.3407" y2="502.5975" gradientTransform="matrix(10.5295 24.4094 24.4094 -10.5295 -12269.1943 5435.2065)">
		<stop offset="0" style="stop-color:#105FA1"/>
		<stop offset="1" style="stop-color:#1D2C5E"/>
	</linearGradient>
	<polygon id="XMLID_19_" style="fill:url(#XMLID_00000035501361157518161670000011034252030274954405_);" points="31.42,266.56    68.17,349.88 103.1,338.66 111.66,332.91 39.14,257.02 30.16,262.49 22.86,270.21  "/>
	<path id="XMLID_20_" class="st3" d="M395.99,305.84l0.56,4.07c2.95-0.28,6.17-0.7,8.84-1.68c3.09-1.12,9.96-4.07,12.62-6.31   C416.89,302.19,400.9,306.4,395.99,305.84"/>
	<path id="XMLID_21_" class="st3" d="M272.27,284.52l1.26,6.59c7.01-1.12,13.19-3.65,19.08-7.29c3.79-2.24,7.86-5.61,9.12-6.45   C301.03,277.92,272.27,284.52,272.27,284.52z"/>
	<path id="XMLID_26_" class="st11" d="M77.85,342.03L75.05,336l-34.93-77.85l-0.7-1.54l-1.54,0.7l-1.12,0.42l-6.17,3.09   c-0.98-1.54-2.38-4.07-3.51-5.89l-14.03-23.71l-3.65-6.17l6.03-3.79c5.75-3.65,12.2-7.01,19.22-10.1   c14.03-6.03,28.34-9.12,41.52-9.12c4.35,0,8.42,0.28,12.34,0.98c6.45,0.7,12.48,2.95,17.53,6.17c7.43,4.21,13.33,10.52,16.55,18.24   c2.67,6.31,3.23,13.61,1.54,21.18l-0.98,4.49l3.65-2.67c2.52-1.82,5.19-3.37,8.14-4.63c4.91-2.1,10.1-3.09,15.15-3.09   c4.91,0,9.4,0.98,13.61,2.81l2.67,1.26l-0.28-2.95l-1.12-12.76l-0.14-1.96l-1.96,0.56l-5.89,1.54l-0.98-21.74l43.2-13.89   l-0.28,16.83l3.23,0.84l9.4-18.1l28.34,25.11l1.12,0.98l1.12-1.12c3.93-3.65,8.42-6.59,13.61-8.7l2.1-0.84l-1.54-1.82l-5.05-6.17   l32.54-37.45l16.97,25.39l-26.09,14.03l-5.75,3.09l6.59,0.14c12.34,0.28,23.29,5.47,30.72,14.73l2.67,3.37l1.68,2.1l-2.95,3.09   l-1.96,2.1l-6.45,6.87l-1.26,1.26l1.26,1.12l6.03,5.47l2.38,2.1l0.56-3.09l2.38-14.45l0.56-3.79l0,0l0.56-3.79l3.51-21.46h31.14   h1.4l0.28-1.4l0.56-3.65h28.05l6.87,42.92l0.42,2.81l2.24-1.68c2.81-1.96,5.75-3.65,9.12-4.91c4.35-1.68,8.84-2.52,13.19-2.52   c5.33,0,10.38,1.26,14.87,3.51c0.14,0.14,0.28,0.14,0.56,0.28l2.1,0.84l0.28-2.24l0.56-4.63l0.14-1.54l-1.54-0.28l-5.75-1.26   l-0.28-22.44l43.48,9.54l3.23,16.13h3.37l3.37-13.89l36.19,8.84l-37.03,111.52l-26.51-8.28l-0.14-10.24v-1.4l-1.4-0.14l-26.37-3.79   l1.54-13.47l0.42-3.23l-2.81,1.4c-1.4,0.7-2.67,1.26-3.93,1.68c-4.35,1.68-8.7,2.52-13.19,2.52c-1.26,0-2.52-0.14-3.79-0.28   l-2.24-0.28l0.42,2.24l1.82,11.78l-38.58-6.73l-1.96-17.53l-0.7-5.61l-2.67,5.05l-4.49,8.56l-8.14-15.15l-2.52-4.49l-0.84,5.05   l-1.82,11.64l-33.81-5.33l2.67-15.99l0.56-3.65l-3.23,1.96c-5.47,3.37-11.92,5.75-19.36,7.57c-2.67,0.7-5.33,1.12-8.14,1.26   l-1.54,0.14v1.54v30.3l-66.49-32.82l-2.52-1.26v2.81v28.2l-29.74,4.35l-1.26-13.47l-0.28-3.65l-2.52,2.52   c-3.93,3.79-8.42,6.87-13.19,8.84c-4.91,2.1-9.96,3.09-15.01,3.09c-5.05,0-9.82-1.12-14.17-3.09c-8-3.79-13.75-10.8-16.27-19.64   c-1.12-4.21-1.54-8.56-0.98-13.05l0.56-4.77l-3.51,3.37c-2.52,2.38-5.05,4.63-7.86,6.59l-0.98,0.7l0.28,1.12l9.96,38.44l1.82,6.87   l-6.73,2.1l-18.94,6.03L77.85,342.03L77.85,342.03z M86.27,238.79c-0.98,0-1.96,0.14-2.95,0.28l-1.26,0.28l-1.96,0.42l0.56,1.82   l0.42,1.26l5.33,17.67l0.56,1.68l0.84,2.52l1.96-1.82l1.26-1.12c5.19-4.77,7.01-9.54,5.89-15.43c-0.7-3.65-3.51-5.47-5.05-6.17   C90.2,239.21,88.37,238.79,86.27,238.79z M230.89,239.35l-3.37,3.23l-8.84,8.7l-1.96,1.82l2.52,0.98l9.54,3.65l2.95,1.12   l-0.56-3.09c-0.84-3.93-0.98-8-0.56-11.78L230.89,239.35L230.89,239.35z M269.75,229.53c-3.65,0-7.29,1.54-9.82,4.35   c-3.79,4.21-4.63,10.38-1.82,15.43l0.7,1.4l1.12,2.1l1.68-1.82l1.12-1.12L275.78,235l0.98-1.12l1.68-1.82l-2.38-0.84l-1.4-0.56   C272.97,229.81,271.43,229.53,269.75,229.53z"/>
	<path id="XMLID_27_" class="st12" d="M289.67,251.55l-0.42,0.42L289.67,251.55z"/>
	<polygon id="XMLID_28_" class="st12" points="300.89,241.17 307.34,234.16 305.1,236.54 305.24,236.26 303.27,238.37    296.68,245.24 302.85,250.71 303.97,243.84 306.92,246.64  "/>
	<polygon id="XMLID_29_" class="st12" points="300.89,241.17 306.92,246.64 309.3,232.05 307.34,234.16  "/>
	<path id="XMLID_30_" class="st12" d="M219.81,252.39L219.81,252.39L219.81,252.39z"/>
	<path id="XMLID_31_" class="st13" d="M255.86,258.42c0.56,0.56,0,0.14,0.56,0.56l3.93-2.81c-0.56-0.42-1.12-0.84-1.68-1.4   c-5.75-5.33-4.21-17.11-0.56-23.57C248.43,239.21,248.85,251.55,255.86,258.42"/>
	<path id="XMLID_32_" class="st13" d="M303.97,265.16c-6.59,5.47-14.03,8.98-23.99,11.36c-2.1,0.56-4.35,0.84-6.31,0.98   c-15.71,1.54-28.9-5.61-33.95-17.39c-0.56-1.4-1.12-2.81-1.4-4.35c-2.24-9.82-0.28-18.66,4.49-25.53c0.42-0.7,0.98-1.26,1.54-1.96   c-0.28,0.28-0.56,0.42-0.7,0.56c-1.82,1.68-3.51,3.51-4.91,5.47c-4.91,6.87-6.87,15.71-4.49,25.53c0.42,1.54,0.84,2.95,1.4,4.35   c5.05,11.78,18.24,18.94,33.95,17.39c2.1-0.14,4.21-0.56,6.31-1.12c9.96-2.38,17.39-5.89,23.99-11.36   c1.54-1.26,3.09-2.81,4.63-4.35l-0.14-0.14L303.97,265.16"/>
	<polygon id="XMLID_33_" class="st13" points="193.16,235.28 210.69,210.59 209.99,210.03 193.16,233.74  "/>
	<polygon id="XMLID_34_" class="st13" points="309.3,232.05 306.92,246.64 303.97,243.84 302.85,250.71 296.68,245.24    303.27,238.37 305.24,236.26 305.1,236.54 307.34,234.16  "/>
	<polygon id="XMLID_35_" class="st13" points="287.56,191.51 293.73,188.85 282.51,174.4 278.86,179.59  "/>
	<path id="XMLID_36_" class="st13" d="M117.41,227.14c-28.34-34.51-79.54-15.99-97.91,0.14l0.7,1.26c4.21-2.38,8.7-4.63,13.33-6.59   c18.24-7.86,35.63-10.1,49.66-7.57c4.91,0.56,10.1,1.96,14.73,5.05c6.31,3.51,11.08,8.56,13.89,15.01   c4.91,11.36,0.56,26.51-11.08,39.14C115.31,260.25,125.26,247.34,117.41,227.14z"/>
	<path id="XMLID_37_" class="st13" d="M175.34,267.54c-0.14-0.56-0.28-1.26-0.42-1.82c-1.54-5.75-5.05-10.38-9.54-13.33   c-7.29-4.91-17.39-6.03-27.63-1.68c-5.33,2.24-9.96,5.89-13.61,10.1c2.81-2.38,6.03-4.49,9.54-5.89   c10.1-4.35,20.34-3.23,27.63,1.68c4.49,3.09,7.86,7.57,9.54,13.33c0.14,0.56,0.28,1.26,0.42,1.96c0.42,2.24,0.7,4.35,0.56,6.59   c-0.28,6.59-2.67,13.33-6.73,18.94c-0.7,0.84-1.4,1.68-2.1,2.52c2.38-1.96,4.35-4.21,6.17-6.73c4.07-5.61,6.59-12.34,6.73-18.94   C175.9,271.89,175.76,269.65,175.34,267.54"/>
	<path id="XMLID_38_" class="st13" d="M147.29,258.99l4.07-4.07c-5.19-0.14-7.43,4.77-7.57,5.05   C144.9,259.55,146.03,259.13,147.29,258.99"/>
	<path id="XMLID_39_" class="st13" d="M157.11,265.02c0.28,0.7,0.28,1.4,0.28,2.1c0,1.12-0.28,2.1-0.7,3.09   c0.84-0.42,6.87-3.37,4.49-9.54C161.46,260.95,156.97,265.02,157.11,265.02"/>
	<path id="XMLID_40_" class="st13" d="M133.54,268.52c0-2.52,4.35-8.7,5.75-10.8c-6.87,4.35-9.82,10.24-9.82,14.87   c0,8,7.01,14.31,15.29,14.31c3.93,0,11.22-2.1,15.99-9.82c-2.52,1.68-8.84,5.61-12.06,5.61   C140.13,282.83,133.54,276.52,133.54,268.52"/>
	<polygon id="XMLID_41_" class="st13" points="192.32,275.82 192.46,307.94 197.51,308.22 196.52,271.61  "/>
	<polygon id="XMLID_42_" class="st13" points="163,214.38 163.14,217.32 187.27,210.03 189.09,240.89 193.16,235.28 192.32,204.28     "/>
	<polygon id="XMLID_43_" class="st13" points="236.22,225.46 213.5,204.56 210.69,210.59 230.75,229.53  "/>
	<path id="XMLID_44_" class="st13" d="M232.71,264.46l-26.65-8.84l-3.93,4.07l26.65,10.66c3.09,5.75,7.57,10.52,13.33,14.17   c5.61,3.37,11.92,5.47,18.66,6.03v13.19l4.07,2.1l1.26-19.78L232.71,264.46L232.71,264.46z"/>
	<path id="XMLID_45_" class="st13" d="M275.64,260.67c6.59-1.54,10.38-5.05,13.61-8.84c-2.38,1.96-14.73,4.63-16.83,5.33l-4.07,4.35   C270.31,261.79,273.39,261.23,275.64,260.67"/>
	<path id="XMLID_46_" class="st13" d="M263.72,215.22c-12.06,1.54-18.38,11.78-19.5,13.05c4.49-3.79,10.1-6.59,16.41-8.14   c15.01-3.65,28.2,0.98,36.33,11.08l5.05-4.21C294.01,217.04,278.72,211.71,263.72,215.22"/>
	<path id="XMLID_47_" class="st13" d="M304.39,264.74c1.4-1.26,4.07-2.52,5.47-3.93l-16.27-14.45c-1.26,1.54-2.38,3.93-3.93,5.19   L304.39,264.74L304.39,264.74z"/>
	<path id="XMLID_48_" class="st13" d="M387.44,303.59c-16.97-14.03-15.99-43.91-7.57-53.44l-7.43-46.99l-16.41,2.1l-0.7,4.07h12.34   l6.59,42.64c-8.42,9.54-12.34,22.3-9.54,33.95c2.1,8.98,7.72,16.41,15.71,20.62c0.84,0.42,1.68,0.84,2.52,1.12l0.14,0.56l4.91,0.7   C387.72,309.2,388.28,304.01,387.44,303.59L387.44,303.59z"/>
	<polygon id="XMLID_49_" class="st13" points="322.21,210.03 321.51,214.24 340.16,214.24 345.64,244.4 349.84,240.19    345.35,208.35  "/>
	<polygon id="XMLID_50_" class="st13" points="354.19,268.66 348.16,284.24 349.56,288.3 358.26,264.6  "/>
	<polygon id="XMLID_51_" class="st13" points="336.24,258.85 332.03,262.91 327.68,291.11 331.89,292.79  "/>
	<path id="XMLID_52_" class="st13" d="M420.12,249.87c2.38,1.68,4.49,3.93,6.03,6.59c1.26,1.96,2.24,4.21,2.81,6.73   c2.1,8.42-0.42,17.67-5.75,24.97c-0.56,0.7-1.12,1.4-1.68,2.1c2.24-1.82,28.76-21.46,2.81-47.13c-28.48-9.4-39.28,9.26-40.26,10.38   c2.95-2.52,6.45-4.63,10.24-6.17C403.85,243.7,413.39,244.96,420.12,249.87"/>
	<path id="XMLID_53_" class="st13" d="M405.81,251.69c0.14,0.14,4.07-4.21,4.21-4.21c-5.05,0.14-7.57,2.67-7.29,3.79   c-0.28,0.42-0.56,0.84-0.7,1.4C403.01,252.11,404.97,251.69,405.81,251.69"/>
	<path id="XMLID_54_" class="st13" d="M415.35,258.14c0.14,0.7,0.28,1.4,0.28,2.1c0,0.98-0.28,1.82-0.7,2.67   c0.7-0.28,6.87-2.24,4.63-8.98C419.56,254.08,415.21,258.14,415.35,258.14"/>
	<path id="XMLID_55_" class="st13" d="M401.88,279.61c5.75,0.28,12.06-3.23,16.69-9.54c-11.64,2.38-23.99-17.11-22.72-18.94   c-4.35,3.23-8.28,9.4-8.56,13.75C386.88,272.73,393.47,279.19,401.88,279.61"/>
	<polygon id="XMLID_56_" class="st13" points="465.85,330.25 468.52,332.07 502.04,231.77 476.93,226.02 476.65,231.91    496.85,236.4  "/>
	<polygon id="XMLID_57_" class="st13" points="426.15,215.22 426.43,220.83 452.94,226.16 463.18,274.7 467.39,270.63    457.57,221.53  "/>
	<polygon id="XMLID_58_" class="st13" points="446.63,270.63 439.34,312.01 443.55,313.41 450.84,266.56  "/>
	<polygon id="XMLID_59_" class="st13" points="101.56,327.16 89.07,282.13 84.59,285.22 96.09,328.42  "/>
	<path id="XMLID_60_" class="st13" d="M98.33,259.41c-2.81,3.09-9.26,8.98-12.91,11.22l-2.24-7.01l-4.77-15.43l-3.09-10.52   l-2.95,3.79l3.09,10.52l4.77,15.43l2.24,7.15C87.39,271.33,94.68,265.3,98.33,259.41"/>
	<path id="XMLID_61_" class="st12" d="M274.52,232.75c-3.93-1.54-9.54-1.12-12.48,2.24c-0.7,0.7-2.1,2.67-2.52,3.51   c2.95-2.24,8.14-2.81,11.5-1.54L274.52,232.75z"/>
	<path id="XMLID_62_" class="st12" d="M94.68,246.64c-0.42-2.38-2.67-4.21-3.79-4.63c-1.96-0.98-5.47-1.12-8-0.7   c0.42,1.54,0.98,3.37,1.12,4.21c0.98,0.14,2.67,0.42,3.51,0.84c1.12,0.56,3.09,1.82,3.51,4.07c0.56,3.09,0.42,6.03-0.84,8.42   C93.84,255.34,95.67,251.55,94.68,246.64"/>
	<path id="XMLID_65_" class="st14" d="M101,246.64c-1.68-9.12-13.75-14.17-25.53-7.72l3.09,10.52l4.77,15.57l2.24,7.01   C94.4,266.28,103.38,259.27,101,246.64z M89.21,260.67c-1.26-4.21-4.21-13.33-4.21-13.33s-0.56-1.96-1.26-4.21   c2.52-0.42,4.91-0.28,6.87,0.7c1.12,0.56,3.09,1.82,3.51,4.07C95.25,253.23,93.42,256.88,89.21,260.67z"/>
	<path id="XMLID_68_" class="st15" d="M280.83,232.05c-6.59-6.03-16.97-5.61-23,0.98c-6.03,6.59-5.61,16.97,0.98,23   c0.56,0.56,1.12,0.98,1.68,1.4l21.46-24.27C281.53,232.9,281.11,232.47,280.83,232.05z M260.49,249.17c-2.1-3.79-1.68-8.7,1.4-12.2   c2.95-3.23,7.57-4.21,11.5-2.67L260.49,249.17z"/>
	<polygon id="XMLID_69_" class="st16" points="309.44,229.39 297.52,240.89 308.74,250.99  "/>
	<path id="XMLID_70_" class="st17" d="M419.42,253.94c0.14,0.7,0.28,1.4,0.28,2.24c-0.14,4.49-4.49,8-9.54,7.86   c-5.05-0.14-9.12-4.07-8.84-8.56c0.14-4.21,3.93-7.57,8.56-7.86c-0.84-0.14-1.82-0.28-2.81-0.28c-8.56-0.42-15.43,5.61-15.71,13.19   c-0.28,8,6.03,14.59,14.45,14.87c8.56,0.28,15.43-5.75,15.85-13.61C421.66,258.85,420.96,256.18,419.42,253.94"/>
	
		<linearGradient id="XMLID_00000147202259943403975450000011474473888655918488_" gradientUnits="userSpaceOnUse" x1="2.3738" y1="506.3499" x2="4.2739" y2="506.3499" gradientTransform="matrix(15.929 0 0 15.929 95.6742 -7796.9834)">
		<stop offset="0" style="stop-color:#3C5AA6"/>
		<stop offset="0.9331" style="stop-color:#2B73B9"/>
		<stop offset="1" style="stop-color:#2A75BB"/>
	</linearGradient>
	<path id="XMLID_71_" style="fill:url(#XMLID_00000147202259943403975450000011474473888655918488_);" d="M161.6,263.05   c0,4.49-4.21,8.14-9.26,8.14c-5.05,0-9.26-3.65-9.26-8.14c0-4.21,3.65-7.72,8.28-8.14c-0.84-0.14-1.82-0.28-2.81-0.28   c-8.56,0-15.15,6.31-15.15,13.75c0,8,6.73,14.31,15.01,14.31c8.56,0,15.15-6.31,15.15-14.31c0-2.81-0.98-5.33-2.52-7.57   C161.46,261.65,161.6,262.35,161.6,263.05"/>
	
		<linearGradient id="XMLID_00000016047256283015667030000004432029113960264089_" gradientUnits="userSpaceOnUse" x1="5.5583" y1="505.9918" x2="7.4586" y2="505.9918" gradientTransform="matrix(265.743 0 0 265.743 -1470.0654 -134210.75)">
		<stop offset="0" style="stop-color:#3C5AA6"/>
		<stop offset="0.9331" style="stop-color:#2B73B9"/>
		<stop offset="1" style="stop-color:#2A75BB"/>
	</linearGradient>
	<path id="XMLID_83_" style="fill:url(#XMLID_00000016047256283015667030000004432029113960264089_);" d="M472.3,217.04l-3.79,15.57   l-3.51-17.25l-46.71-10.24l0.28,25.95l7.01,1.54l-0.56,4.63l-0.14-0.14c-8.7-4.63-19.5-5.05-29.74-1.26   c-3.37,1.26-6.59,3.09-9.4,5.05l-7.01-44.47h-31l-0.84,5.05h-32.68l-3.79,22.86l-2.67-3.37c-7.86-9.68-19.36-15.15-32.12-15.29   l27.77-14.87l-19.36-28.9l-34.93,40.26l6.03,7.29c-5.47,2.24-10.24,5.33-14.17,8.98l-29.88-26.23l-10.52,20.06l0.42-19.36   l-46.85,15.01l1.26,25.11l8-2.1l1.12,12.76c-9.12-4.07-20.06-3.93-30.16,0.28c-2.95,1.26-5.75,2.95-8.42,4.77   c1.82-7.72,1.4-15.43-1.68-22.3c-3.51-8.14-9.68-14.73-17.25-18.94c-5.33-3.51-11.64-5.75-18.24-6.45   c-16.27-2.81-35.63,0.14-54.85,8.28c-7.01,2.95-13.61,6.45-19.5,10.24l-7.43,4.77l4.49,7.57l14.03,23.71l4.35,7.29l7.57-3.79   l1.12-0.28L73.5,336.7l3.37,7.43l7.86-2.52l18.94-6.03l8.28-2.67l-2.24-8.42l-9.96-38.44c2.95-2.1,5.61-4.35,8-6.73   c-0.56,4.63-0.28,9.26,0.98,13.75c2.67,9.26,8.7,16.69,17.25,20.76c9.12,4.35,20.34,4.35,30.58,0c5.19-2.24,9.82-5.47,13.75-9.26   l1.4,15.29l33.1-4.91v-29.6l69.01,34.09v-33.1c2.81-0.28,5.61-0.7,8.42-1.4c7.57-1.82,14.17-4.35,19.92-7.86l-2.95,17.67   l37.17,5.89l2.1-13.33l9.68,17.96l5.89-11.5l2.1,18.8l42.22,7.43l-2.24-14.17c5.75,0.7,11.92-0.14,17.81-2.38   c1.4-0.56,2.81-1.12,4.07-1.82l-1.68,15.15l28.05,3.93l0.14,11.5l29.32,9.26L512,226.58L472.3,217.04L472.3,217.04z M307.34,234.16   l1.96-2.1l-2.38,14.45l-6.03-5.47L307.34,234.16z M282.65,174.96l10.24,13.89l-29.18,14.45l-1.96-3.09L282.65,174.96z    M89.07,282.13l11.64,44.75l-18.94,6.03l-38.72-86.55c-2.1,1.12-6.03,2.95-9.54,4.77L19.5,227.42c5.61-3.51,11.64-6.73,18.24-9.54   c18.24-7.72,35.63-10.1,49.66-7.57c4.91,0.56,10.1,1.96,14.73,5.05c6.31,3.51,11.08,8.56,13.89,15.01   C122.6,245.94,111.38,268.38,89.07,282.13z M175.9,274.14c-0.28,6.73-2.67,13.33-6.73,18.94c-3.93,5.47-9.4,9.96-15.71,12.76   c-16.41,6.87-32.82,0-37.17-15.57c-4.21-15.01,5.61-32.96,21.46-39.84c10.1-4.35,20.34-3.23,27.63,1.68   c4.49,3.09,8,7.57,9.54,13.33c0.14,0.56,0.28,1.26,0.42,1.82C175.76,269.65,175.9,271.89,175.9,274.14z M264.98,305.84   l-68.45-34.37l0.14,35.91l-17.67,2.38l-1.26-14.73c5.47-9.4,7.43-20.48,4.63-30.58c-1.54-5.61-4.49-10.38-8.42-14.31l-2.52-30.16   l-8,2.1l-0.42-7.57l28.48-8.42l1.68,29.32l20.9-29.46l20.48,19.5l-28.62,30.16l26.93,10.66c2.95,5.75,7.57,10.52,13.33,14.17   c5.61,3.37,11.92,5.47,18.66,6.17L264.98,305.84L264.98,305.84z M229.35,256.18l-9.54-3.65l8.84-8.7   C228.37,247.76,228.51,251.97,229.35,256.18z M303.97,265.16c-6.59,5.47-14.03,8.98-23.99,11.36c-2.1,0.56-4.35,0.84-6.31,0.98   c-15.71,1.54-28.9-5.61-33.95-17.39c-0.56-1.4-1.12-2.81-1.4-4.35c-2.24-9.82-0.28-18.66,4.49-25.53c1.4-1.96,3.09-3.79,4.91-5.47   c4.63-4.07,10.38-7.01,17.11-8.7c15.01-3.65,28.2,0.98,36.19,10.94l-28.48,30.3c1.96,0.42,5.05-0.14,7.29-0.7   c6.73-1.68,10.66-5.33,13.89-9.26l11.36,10.24l3.51,3.09C307.06,262.35,305.52,263.76,303.97,265.16z M364.43,305.7l-6.17-41.1   l-8.84,22.72l-13.19-28.34h-0.14l-5.19,32.82l-21.88-3.79l3.09-18.38c0.84-0.84,1.68-1.54,2.38-2.38l7.15-7.29l-6.87-6.17   l7.29-43.63h22.16l5.47,30.16l6.17-34.93h15.85l6.59,42.64c-8.42,9.54-12.34,22.3-9.68,33.95c2.1,9.12,7.72,16.41,15.71,20.62   c0.84,0.42,1.68,0.84,2.52,1.12l0.84,5.47L364.43,305.7L364.43,305.7z M419,292.23c-2.38,1.68-5.05,3.23-8,4.21   c-5.61,2.1-11.22,2.67-16.27,1.54c-3.51-0.7-6.59-2.1-9.4-4.07c-4.35-3.23-7.57-7.86-9.12-13.75c-1.68-7.15-0.14-14.59,3.65-21.32   c1.96-3.23,4.35-6.31,7.15-8.98c3.23-2.95,7.01-5.19,11.08-6.87c9.68-3.65,19.22-2.38,25.95,2.52c2.52,1.68,4.49,3.93,6.17,6.59   c1.26,2.1,2.1,4.35,2.81,6.73c2.1,8.56-0.42,17.67-5.75,24.97C425.03,287.18,422.22,289.99,419,292.23z M468.37,330.95l-16.13-4.77   l-1.4-59.76l-8.14,46.01l-17.67-2.81l1.26-13.33c11.5-9.68,17.67-25.11,14.31-39c-1.4-6.17-4.63-11.5-9.12-15.57l1.54-15.71   l-6.73-1.82l0.42-8.42l30.44,6.17l10.24,48.53L477.91,227l23.15,5.05L468.37,330.95L468.37,330.95z"/>
	<polygon id="XMLID_84_" points="481.7,336.7 481.7,332.07 480.02,332.07 480.02,331.51 484.09,331.51 484.09,332.07 482.4,332.07    482.4,336.7  "/>
	<path id="XMLID_85_" d="M484.65,336.7v-5.05h0.98l1.26,3.65c0.14,0.28,0.14,0.56,0.28,0.7c0-0.14,0.14-0.42,0.28-0.84l1.26-3.51   h0.84v5.05h-0.7v-4.21l-1.54,4.21h-0.56l-1.54-4.35v4.35H484.65z"/>
</g>
</svg>